<svg width="114" height="45" viewBox="0 0 114 45" fill="none" xmlns="http://www.w3.org/2000/svg">
<g clip-path="url(#clip0_183_9)">
<path d="M47.5439 19.5024H43.2639V4.37476H47.5439V19.5024ZM53.6846 13.6042H47.2435V10.0621H53.6846V13.6042ZM53.3789 4.37476H57.6589V19.5024H53.3789V4.37476Z" fill="#232122"/>
<path d="M66.3664 19.6973C65.0856 19.6973 63.9471 19.4391 62.9509 18.9172C61.9547 18.4007 61.1746 17.6838 60.6053 16.7667C60.036 15.8496 59.7514 14.8059 59.7514 13.6199C59.7514 12.434 60.036 11.3956 60.6053 10.4837C61.1746 9.57713 61.9547 8.86556 62.9509 8.35427C63.9471 7.84299 65.0803 7.58472 66.3664 7.58472C67.6473 7.58472 68.7911 7.84299 69.7926 8.35427C70.794 8.86556 71.5741 9.57713 72.1381 10.4837C72.7021 11.3903 72.9815 12.434 72.9815 13.6199C72.9815 14.8059 72.7021 15.8496 72.1381 16.7667C71.5741 17.6838 70.794 18.4007 69.7926 18.9172C68.7911 19.4391 67.6526 19.6973 66.3664 19.6973ZM66.3664 16.4346C66.8408 16.4346 67.2625 16.3239 67.6315 16.1078C68.0004 15.8917 68.2903 15.5702 68.5064 15.1485C68.7226 14.7216 68.8332 14.2156 68.8332 13.6252C68.8332 13.0349 68.7226 12.5341 68.5064 12.123C68.2903 11.7119 68.0004 11.4009 67.6315 11.1848C67.2625 10.9687 66.8408 10.8632 66.3664 10.8632C65.9026 10.8632 65.4915 10.9739 65.1225 11.1848C64.7535 11.4009 64.4584 11.7119 64.237 12.123C64.0156 12.5341 63.8996 13.0349 63.8996 13.6252C63.8996 14.2156 64.0103 14.7216 64.237 15.1485C64.4584 15.5755 64.7535 15.8917 65.1225 16.1078C65.4915 16.3239 65.9079 16.4346 66.3664 16.4346Z" fill="#232122"/>
<path d="M79.138 19.6975C78.1418 19.6975 77.1772 19.5816 76.2337 19.3497C75.2902 19.1177 74.5312 18.8331 73.9514 18.4852L75.1848 15.6758C75.7329 16.0079 76.3707 16.2714 77.1086 16.4665C77.8413 16.6615 78.5634 16.7564 79.2697 16.7564C79.9602 16.7564 80.4399 16.6826 80.7087 16.5403C80.9775 16.3979 81.1093 16.2029 81.1093 15.9552C81.1093 15.7233 80.9828 15.5546 80.7298 15.4492C80.4768 15.3385 80.1447 15.2594 79.7336 15.2014C79.3224 15.1435 78.8744 15.0802 78.3842 15.0064C77.894 14.9326 77.3985 14.8377 76.9031 14.7165C76.4076 14.5953 75.9543 14.4055 75.5432 14.1525C75.132 13.8995 74.8052 13.5569 74.5575 13.1247C74.3098 12.6925 74.1885 12.1443 74.1885 11.4801C74.1885 10.7317 74.4099 10.0623 74.8474 9.48246C75.2849 8.89738 75.9332 8.43881 76.7818 8.10147C77.6305 7.76413 78.6689 7.59546 79.8917 7.59546C80.714 7.59546 81.5468 7.67979 82.3901 7.84319C83.2335 8.00659 83.9398 8.2596 84.5196 8.5864L83.2862 11.3747C82.7117 11.0427 82.1319 10.816 81.5573 10.6948C80.9828 10.5735 80.4346 10.5103 79.9128 10.5103C79.2223 10.5103 78.7374 10.5894 78.4527 10.7475C78.1734 10.9056 78.0311 11.1006 78.0311 11.3326C78.0311 11.5645 78.1523 11.7384 78.4 11.8597C78.6425 11.9809 78.9746 12.0758 79.3857 12.139C79.7968 12.2023 80.2449 12.2708 80.7351 12.334C81.2253 12.3973 81.7207 12.4974 82.2162 12.6239C82.7117 12.7504 83.165 12.9455 83.5761 13.1985C83.9872 13.4515 84.314 13.7888 84.5618 14.2158C84.8042 14.6427 84.9307 15.1856 84.9307 15.8498C84.9307 16.5719 84.7094 17.2202 84.2719 17.7947C83.8344 18.3693 83.1861 18.8331 82.3269 19.1757C81.473 19.5236 80.4083 19.6975 79.138 19.6975Z" fill="#232122"/>
<path d="M85.4737 11.2903V8.22263H93.9652V11.2903H85.4737ZM91.9359 19.6975C90.4389 19.6975 89.2688 19.3285 88.436 18.5853C87.5979 17.8421 87.1815 16.7247 87.1815 15.2224V5.17603H91.2875V15.1803C91.2875 15.5967 91.4035 15.9235 91.6354 16.1659C91.8674 16.4031 92.1625 16.5244 92.5209 16.5244C93.0111 16.5244 93.4275 16.4031 93.7754 16.1554L94.7927 19.0281C94.4448 19.26 94.0232 19.4287 93.5172 19.5341C93.0059 19.6448 92.4788 19.6975 91.9359 19.6975Z" fill="#232122"/>
<path d="M102.156 19.6975C100.775 19.6975 99.5682 19.434 98.5351 18.9069C97.5072 18.3798 96.7061 17.663 96.1368 16.7458C95.5675 15.8287 95.2829 14.7903 95.2829 13.6254C95.2829 12.4605 95.5623 11.4169 96.1157 10.505C96.6692 9.58788 97.4387 8.8763 98.4191 8.36502C99.3995 7.85374 100.501 7.59546 101.724 7.59546C102.878 7.59546 103.927 7.82738 104.881 8.29649C105.835 8.76561 106.589 9.45083 107.153 10.3627C107.717 11.2693 107.996 12.3709 107.996 13.6676C107.996 13.8099 107.991 13.9786 107.975 14.1631C107.96 14.3528 107.949 14.5215 107.933 14.6796H98.6616V12.5185H105.751L104.196 13.1247C104.212 12.5923 104.112 12.1285 103.906 11.7437C103.695 11.3536 103.411 11.0532 103.042 10.8371C102.673 10.621 102.246 10.5103 101.756 10.5103C101.265 10.5103 100.838 10.621 100.47 10.8371C100.101 11.0532 99.8159 11.3589 99.6156 11.7542C99.4153 12.1496 99.3152 12.6134 99.3152 13.1458V13.773C99.3152 14.3475 99.4364 14.8483 99.6736 15.2647C99.9108 15.6811 100.253 16.0026 100.701 16.224C101.149 16.4454 101.682 16.5613 102.299 16.5613C102.873 16.5613 103.369 16.477 103.78 16.3136C104.191 16.1502 104.597 15.8919 105.003 15.544L107.164 17.7895C106.6 18.4114 105.909 18.8806 105.087 19.2073C104.254 19.5341 103.279 19.6975 102.156 19.6975Z" fill="#232122"/>
<path d="M109.894 19.5025V3.46826H114V19.5025H109.894Z" fill="#232122"/>
<path d="M43.0847 40.8129V25.6853H46.6057L52.8729 35.9742H51.0122L57.1054 25.6853H60.6264L60.6686 40.8129H56.7365L56.6943 31.6731H57.3637L52.8043 39.3212H50.9015L46.2104 31.6731H47.0327V40.8129H43.0847Z" fill="#232122"/>
<path d="M67.2046 41.0079C66.2663 41.0079 65.4757 40.8498 64.8274 40.5335C64.179 40.2173 63.6836 39.785 63.3462 39.2369C63.0089 38.6887 62.8402 38.0773 62.8402 37.4026C62.8402 36.6804 63.0247 36.0585 63.3937 35.5314C63.7626 35.0043 64.3266 34.6037 65.0909 34.3191C65.8552 34.0397 66.8409 33.8974 68.0532 33.8974H70.8204V36.0374H68.6172C67.953 36.0374 67.4892 36.1428 67.2256 36.3589C66.9568 36.575 66.825 36.8649 66.825 37.2234C66.825 37.5818 66.9621 37.8717 67.2362 38.0878C67.5103 38.3039 67.8845 38.4146 68.3589 38.4146C68.8069 38.4146 69.2128 38.3039 69.5817 38.0772C69.9507 37.8559 70.2195 37.5133 70.3935 37.0494L70.9575 38.5622C70.7414 39.3686 70.3197 39.9801 69.6924 40.3859C69.0547 40.8023 68.2271 41.0079 67.2046 41.0079ZM70.6623 40.8129V38.6307L70.3829 38.0878V34.0661C70.3829 33.4177 70.1826 32.917 69.7873 32.5638C69.392 32.2107 68.7595 32.0367 67.895 32.0367C67.3311 32.0367 66.7618 32.1264 66.1873 32.3056C65.6127 32.4848 65.1225 32.7325 64.7167 33.0488L63.3357 30.2604C63.9998 29.8282 64.7957 29.4909 65.7234 29.2537C66.6511 29.0165 67.5788 28.8953 68.5012 28.8953C70.404 28.8953 71.8746 29.3328 72.9183 30.2025C73.9619 31.0722 74.4837 32.4373 74.4837 34.298V40.8023H70.6623V40.8129Z" fill="#232122"/>
<path d="M75.8489 32.6009V29.5332H84.3404V32.6009H75.8489ZM82.3111 41.008C80.8141 41.008 79.644 40.6391 78.8112 39.8959C77.9731 39.1527 77.5567 38.0352 77.5567 36.533V26.4866H81.6627V36.4908C81.6627 36.9072 81.7787 37.2393 82.0106 37.4765C82.2425 37.7137 82.5377 37.8349 82.8961 37.8349C83.3863 37.8349 83.8027 37.7137 84.1506 37.466L85.1679 40.3386C84.82 40.5705 84.3984 40.7392 83.8923 40.8446C83.3811 40.9553 82.8592 41.008 82.3111 41.008Z" fill="#232122"/>
<path d="M92.5315 41.0079C91.1505 41.0079 89.9434 40.7443 88.9103 40.2172C87.8825 39.6901 87.0813 38.9733 86.512 38.0561C85.9428 37.139 85.6581 36.1006 85.6581 34.9357C85.6581 33.7708 85.9375 32.7272 86.491 31.8153C87.0444 30.8982 87.814 30.1866 88.7944 29.6753C89.7748 29.164 90.8764 28.9058 92.0992 28.9058C93.2536 28.9058 94.3025 29.1377 95.2565 29.6068C96.2053 30.0759 96.9643 30.7611 97.5283 31.673C98.0923 32.5796 98.3717 33.6812 98.3717 34.9779C98.3717 35.1202 98.3664 35.2889 98.3506 35.4734C98.3348 35.6631 98.3242 35.8318 98.3084 35.9899H89.0368V33.8288H96.1262L94.5713 34.435C94.5871 33.9026 94.487 33.4388 94.2814 33.054C94.0706 32.6639 93.7859 32.3635 93.417 32.1474C93.048 31.9313 92.6211 31.8206 92.1309 31.8206C91.6407 31.8206 91.2137 31.9313 90.8448 32.1474C90.4758 32.3635 90.1912 32.6692 89.9909 33.0645C89.7906 33.4599 89.6904 33.9237 89.6904 34.4561V35.0833C89.6904 35.6578 89.8116 36.1586 90.0488 36.575C90.286 36.9914 90.6286 37.3129 91.0767 37.5343C91.5247 37.7557 92.0571 37.8716 92.6738 37.8716C93.2483 37.8716 93.7438 37.7873 94.1549 37.6239C94.566 37.4605 94.9719 37.2022 95.3778 36.8543L97.5389 39.0998C96.9749 39.7217 96.2844 40.1909 95.4621 40.5177C94.6293 40.8497 93.6542 41.0079 92.5315 41.0079Z" fill="#232122"/>
<path d="M29.6491 14.8272L22.2381 22.2381L14.8272 14.8272L7.41622 22.2381L0 14.8272L14.8272 0L29.6491 14.8272Z" fill="#00712D"/>
<path d="M29.6491 29.649L14.8272 44.4762L0 29.649L7.41622 22.238L14.8272 29.649L22.2381 22.238L29.6491 29.649Z" fill="#00712D"/>
</g>
<defs>
<clipPath id="clip0_183_9">
<rect width="114" height="44.4762" fill="white"/>
</clipPath>
</defs>
</svg>
