<svg width="114" height="45" viewBox="0 0 114 45" fill="none" xmlns="http://www.w3.org/2000/svg">
<g clip-path="url(#clip0_183_229)">
<path d="M47.5439 19.5024H43.2639V4.37476H47.5439V19.5024ZM53.6846 13.6042H47.2435V10.0621H53.6846V13.6042ZM53.3789 4.37476H57.6589V19.5024H53.3789V4.37476Z" fill="white"/>
<path d="M66.3665 19.6973C65.0857 19.6973 63.9471 19.4391 62.9509 18.9172C61.9547 18.4007 61.1746 17.6838 60.6054 16.7667C60.0361 15.8496 59.7515 14.8059 59.7515 13.6199C59.7515 12.434 60.0361 11.3956 60.6054 10.4837C61.1746 9.57713 61.9547 8.86556 62.9509 8.35427C63.9471 7.84299 65.0804 7.58472 66.3665 7.58472C67.6473 7.58472 68.7911 7.84299 69.7926 8.35427C70.7941 8.86556 71.5742 9.57713 72.1382 10.4837C72.7022 11.3903 72.9815 12.434 72.9815 13.6199C72.9815 14.8059 72.7022 15.8496 72.1382 16.7667C71.5742 17.6838 70.7941 18.4007 69.7926 18.9172C68.7911 19.4391 67.6526 19.6973 66.3665 19.6973ZM66.3665 16.4346C66.8409 16.4346 67.2626 16.3239 67.6315 16.1078C68.0005 15.8917 68.2904 15.5702 68.5065 15.1485C68.7226 14.7216 68.8333 14.2156 68.8333 13.6252C68.8333 13.0349 68.7226 12.5341 68.5065 12.123C68.2904 11.7119 68.0005 11.4009 67.6315 11.1848C67.2626 10.9687 66.8409 10.8632 66.3665 10.8632C65.9027 10.8632 65.4915 10.9739 65.1226 11.1848C64.7536 11.4009 64.4584 11.7119 64.237 12.123C64.0157 12.5341 63.8997 13.0349 63.8997 13.6252C63.8997 14.2156 64.0104 14.7216 64.237 15.1485C64.4584 15.5755 64.7536 15.8917 65.1226 16.1078C65.4915 16.3239 65.9079 16.4346 66.3665 16.4346Z" fill="white"/>
<path d="M79.138 19.6975C78.1418 19.6975 77.1772 19.5816 76.2337 19.3497C75.2902 19.1177 74.5312 18.8331 73.9514 18.4852L75.1848 15.6758C75.733 16.0079 76.3708 16.2714 77.1087 16.4665C77.8414 16.6615 78.5635 16.7564 79.2698 16.7564C79.9603 16.7564 80.4399 16.6826 80.7088 16.5403C80.9776 16.3979 81.1094 16.2029 81.1094 15.9552C81.1094 15.7233 80.9829 15.5546 80.7299 15.4492C80.4768 15.3385 80.1448 15.2594 79.7336 15.2014C79.3225 15.1435 78.8745 15.0802 78.3843 15.0064C77.8941 14.9326 77.3986 14.8377 76.9031 14.7165C76.4077 14.5953 75.9544 14.4055 75.5432 14.1525C75.1321 13.8995 74.8053 13.5569 74.5576 13.1247C74.3098 12.6925 74.1886 12.1443 74.1886 11.4801C74.1886 10.7317 74.41 10.0623 74.8475 9.48246C75.285 8.89738 75.9333 8.43881 76.7819 8.10147C77.6305 7.76413 78.6689 7.59546 79.8918 7.59546C80.714 7.59546 81.5468 7.67979 82.3902 7.84319C83.2335 8.00659 83.9399 8.2596 84.5197 8.5864L83.2863 11.3747C82.7117 11.0427 82.1319 10.816 81.5574 10.6948C80.9829 10.5735 80.4347 10.5103 79.9129 10.5103C79.2224 10.5103 78.7374 10.5894 78.4528 10.7475C78.1734 10.9056 78.0311 11.1006 78.0311 11.3326C78.0311 11.5645 78.1524 11.7384 78.4001 11.8597C78.6426 11.9809 78.9746 12.0758 79.3858 12.139C79.7969 12.2023 80.2449 12.2708 80.7351 12.334C81.2253 12.3973 81.7208 12.4974 82.2163 12.6239C82.7117 12.7504 83.165 12.9455 83.5762 13.1985C83.9873 13.4515 84.3141 13.7888 84.5618 14.2158C84.8043 14.6427 84.9308 15.1856 84.9308 15.8498C84.9308 16.5719 84.7094 17.2202 84.2719 17.7947C83.8344 18.3693 83.1861 18.8331 82.3269 19.1757C81.4731 19.5236 80.4083 19.6975 79.138 19.6975Z" fill="white"/>
<path d="M85.4736 11.2903V8.22263H93.9651V11.2903H85.4736ZM91.9358 19.6975C90.4389 19.6975 89.2687 19.3285 88.4359 18.5853C87.5978 17.8421 87.1814 16.7247 87.1814 15.2224V5.17603H91.2875V15.1803C91.2875 15.5967 91.4034 15.9235 91.6354 16.1659C91.8673 16.4031 92.1625 16.5244 92.5209 16.5244C93.0111 16.5244 93.4275 16.4031 93.7754 16.1554L94.7927 19.0281C94.4448 19.26 94.0231 19.4287 93.5171 19.5341C93.0058 19.6448 92.4787 19.6975 91.9358 19.6975Z" fill="white"/>
<path d="M102.156 19.6975C100.775 19.6975 99.5682 19.434 98.5351 18.9069C97.5073 18.3798 96.7061 17.663 96.1368 16.7458C95.5676 15.8287 95.283 14.7903 95.283 13.6254C95.283 12.4605 95.5623 11.4169 96.1158 10.505C96.6692 9.58788 97.4388 8.8763 98.4192 8.36502C99.3996 7.85374 100.501 7.59546 101.724 7.59546C102.878 7.59546 103.927 7.82738 104.881 8.29649C105.835 8.76561 106.589 9.45083 107.153 10.3627C107.717 11.2693 107.996 12.3709 107.996 13.6676C107.996 13.8099 107.991 13.9786 107.975 14.1631C107.96 14.3528 107.949 14.5215 107.933 14.6796H98.6616V12.5185H105.751L104.196 13.1247C104.212 12.5923 104.112 12.1285 103.906 11.7437C103.695 11.3536 103.411 11.0532 103.042 10.8371C102.673 10.621 102.246 10.5103 101.756 10.5103C101.265 10.5103 100.839 10.621 100.47 10.8371C100.101 11.0532 99.816 11.3589 99.6157 11.7542C99.4154 12.1496 99.3152 12.6134 99.3152 13.1458V13.773C99.3152 14.3475 99.4365 14.8483 99.6737 15.2647C99.9109 15.6811 100.253 16.0026 100.701 16.224C101.15 16.4454 101.682 16.5613 102.299 16.5613C102.873 16.5613 103.369 16.477 103.78 16.3136C104.191 16.1502 104.597 15.8919 105.003 15.544L107.164 17.7895C106.6 18.4114 105.909 18.8806 105.087 19.2073C104.254 19.5341 103.279 19.6975 102.156 19.6975Z" fill="white"/>
<path d="M109.894 19.5025V3.46826H114V19.5025H109.894Z" fill="white"/>
<path d="M43.0847 40.8129V25.6853H46.6057L52.8729 35.9742H51.0122L57.1054 25.6853H60.6264L60.6686 40.8129H56.7365L56.6943 31.6731H57.3637L52.8043 39.3212H50.9015L46.2104 31.6731H47.0327V40.8129H43.0847Z" fill="white"/>
<path d="M67.2046 41.0079C66.2663 41.0079 65.4757 40.8498 64.8274 40.5335C64.179 40.2173 63.6836 39.785 63.3462 39.2369C63.0089 38.6887 62.8402 38.0773 62.8402 37.4026C62.8402 36.6804 63.0247 36.0585 63.3937 35.5314C63.7626 35.0043 64.3266 34.6037 65.0909 34.3191C65.8552 34.0397 66.8409 33.8974 68.0532 33.8974H70.8204V36.0374H68.6172C67.953 36.0374 67.4892 36.1428 67.2256 36.3589C66.9568 36.575 66.825 36.8649 66.825 37.2234C66.825 37.5818 66.9621 37.8717 67.2362 38.0878C67.5103 38.3039 67.8845 38.4146 68.3589 38.4146C68.8069 38.4146 69.2128 38.3039 69.5817 38.0772C69.9507 37.8559 70.2195 37.5133 70.3935 37.0494L70.9575 38.5622C70.7414 39.3686 70.3197 39.9801 69.6924 40.3859C69.0547 40.8023 68.2271 41.0079 67.2046 41.0079ZM70.6623 40.8129V38.6307L70.3829 38.0878V34.0661C70.3829 33.4177 70.1826 32.917 69.7873 32.5638C69.392 32.2107 68.7595 32.0367 67.895 32.0367C67.3311 32.0367 66.7618 32.1264 66.1873 32.3056C65.6127 32.4848 65.1225 32.7325 64.7167 33.0488L63.3357 30.2604C63.9998 29.8282 64.7957 29.4909 65.7234 29.2537C66.6511 29.0165 67.5788 28.8953 68.5012 28.8953C70.404 28.8953 71.8746 29.3328 72.9183 30.2025C73.9619 31.0722 74.4837 32.4373 74.4837 34.298V40.8023H70.6623V40.8129Z" fill="white"/>
<path d="M75.8489 32.6009V29.5332H84.3404V32.6009H75.8489ZM82.3111 41.008C80.8141 41.008 79.644 40.6391 78.8112 39.8959C77.9731 39.1527 77.5567 38.0352 77.5567 36.533V26.4866H81.6627V36.4908C81.6627 36.9072 81.7787 37.2393 82.0106 37.4765C82.2425 37.7137 82.5377 37.8349 82.8961 37.8349C83.3863 37.8349 83.8027 37.7137 84.1506 37.466L85.1679 40.3386C84.82 40.5705 84.3984 40.7392 83.8923 40.8446C83.3811 40.9553 82.8592 41.008 82.3111 41.008Z" fill="white"/>
<path d="M92.5315 41.0079C91.1505 41.0079 89.9435 40.7443 88.9104 40.2172C87.8825 39.6901 87.0814 38.9733 86.5121 38.0561C85.9428 37.139 85.6582 36.1006 85.6582 34.9357C85.6582 33.7708 85.9376 32.7272 86.491 31.8153C87.0445 30.8982 87.814 30.1866 88.7944 29.6753C89.7748 29.164 90.8764 28.9058 92.0993 28.9058C93.2536 28.9058 94.3026 29.1377 95.2566 29.6068C96.2054 30.0759 96.9644 30.7611 97.5284 31.673C98.0924 32.5796 98.3717 33.6812 98.3717 34.9779C98.3717 35.1202 98.3665 35.2889 98.3506 35.4734C98.3348 35.6631 98.3243 35.8318 98.3085 35.9899H89.0369V33.8288H96.1263L94.5714 34.435C94.5872 33.9026 94.487 33.4388 94.2815 33.054C94.0706 32.6639 93.786 32.3635 93.417 32.1474C93.0481 31.9313 92.6211 31.8206 92.1309 31.8206C91.6407 31.8206 91.2138 31.9313 90.8448 32.1474C90.4759 32.3635 90.1912 32.6692 89.9909 33.0645C89.7906 33.4599 89.6905 33.9237 89.6905 34.4561V35.0833C89.6905 35.6578 89.8117 36.1586 90.0489 36.575C90.2861 36.9914 90.6287 37.3129 91.0767 37.5343C91.5248 37.7557 92.0571 37.8716 92.6738 37.8716C93.2484 37.8716 93.7438 37.7873 94.155 37.6239C94.5661 37.4605 94.972 37.2022 95.3778 36.8543L97.5389 39.0998C96.9749 39.7217 96.2844 40.1909 95.4622 40.5177C94.6294 40.8497 93.6542 41.0079 92.5315 41.0079Z" fill="white"/>
<path d="M29.6491 14.8272L22.2381 22.2381L14.8272 14.8272L7.41622 22.2381L0 14.8272L14.8272 0L29.6491 14.8272Z" fill="white"/>
<path d="M29.6491 29.649L14.8272 44.4762L0 29.649L7.41622 22.238L14.8272 29.649L22.2381 22.238L29.6491 29.649Z" fill="white"/>
</g>
<defs>
<clipPath id="clip0_183_229">
<rect width="114" height="44.4762" fill="white"/>
</clipPath>
</defs>
</svg>
